<svg id="svg" version="1.1" xmlns="http://www.w3.org/2000/svg" xmlns:xlink="http://www.w3.org/1999/xlink" width="400" height="571.2691771269177" viewBox="0, 0, 400,571.2691771269177"><g id="svgg"><path id="path0" d="M8.438 80.404 C 8.513 147.295,8.554 152.710,9.010 156.206 C 19.632 237.613,104.088 283.854,177.362 248.381 L 182.199 246.039 180.671 243.173 C 176.929 236.151,124.379 136.095,124.232 135.713 C 124.086 135.330,130.277 135.286,183.652 135.286 L 243.236 135.286 243.236 71.827 L 243.236 8.368 125.796 8.368 L 8.357 8.368 8.438 80.404 M137.564 143.637 C 137.766 144.205,261.745 379.910,261.808 379.846 C 261.922 379.729,386.053 143.569,386.053 143.469 C 386.053 143.417,330.122 143.375,261.762 143.375 C 184.567 143.375,137.506 143.474,137.564 143.637 " stroke="none" fill="#fbfbfb" fill-rule="evenodd"></path><path id="path1" d="M0.137 76.220 C 0.215 118.142,0.343 207.639,0.421 275.105 L 0.563 397.768 199.584 397.768 L 398.605 397.768 398.605 267.632 C 398.605 138.046,398.608 137.491,399.163 136.402 C 399.852 135.052,399.852 135.007,399.163 135.007 C 398.607 135.007,398.605 134.821,398.605 67.503 L 398.605 0.000 199.300 0.000 L -0.006 0.000 0.137 76.220 M243.515 71.826 L 243.515 135.285 183.863 135.355 L 124.212 135.425 153.178 190.516 C 169.109 220.816,182.145 245.742,182.146 245.908 C 182.148 246.273,173.383 250.557,169.317 252.178 C 95.173 281.732,13.833 230.268,8.371 150.349 C 8.200 147.849,8.094 119.958,8.092 77.336 L 8.089 8.368 125.802 8.368 L 243.515 8.368 243.515 71.826 M385.294 145.397 C 384.696 146.510,356.673 199.799,323.021 263.818 C 289.369 327.838,261.747 380.118,261.641 379.997 C 261.534 379.876,233.546 326.681,199.444 261.785 C 165.343 196.890,137.389 143.699,137.324 143.584 C 137.259 143.469,193.270 143.375,261.793 143.375 L 386.380 143.375 385.294 145.397 M101.813 418.131 L 101.813 422.594 106.695 422.594 L 111.576 422.594 111.576 418.131 L 111.576 413.668 106.695 413.668 L 101.813 413.668 101.813 418.131 M258.856 418.131 L 258.856 422.594 263.598 422.594 L 268.340 422.594 268.340 418.131 L 268.340 413.668 263.598 413.668 L 258.856 413.668 258.856 418.131 M12.552 431.532 C 12.552 450.821,12.603 451.475,14.381 455.140 C 17.224 461.001,22.842 463.746,31.939 463.720 C 42.361 463.690,48.159 460.316,50.727 452.788 L 51.464 450.628 51.545 432.427 L 51.627 414.226 46.322 414.226 L 41.016 414.226 40.941 431.749 L 40.865 449.273 40.022 450.927 C 37.552 455.769,29.031 456.692,25.362 452.513 C 23.201 450.052,23.301 451.021,23.214 431.590 L 23.136 414.226 17.844 414.226 L 12.552 414.226 12.552 431.532 M300.418 421.161 C 300.418 424.975,300.342 428.655,300.248 429.340 L 300.077 430.584 298.718 429.147 C 293.957 424.113,284.465 424.688,279.517 430.310 C 273.295 437.378,273.715 453.096,280.299 459.650 C 285.496 464.823,294.714 464.998,299.378 460.012 L 300.697 458.601 300.697 460.681 L 300.697 462.762 305.439 462.762 L 310.181 462.762 310.181 438.494 L 310.181 414.226 305.300 414.226 L 300.418 414.226 300.418 421.161 M378.801 422.573 L 378.801 430.921 377.224 429.268 C 372.059 423.853,362.109 424.730,357.360 431.020 C 350.569 440.014,352.980 457.309,361.677 461.987 C 367.147 464.930,375.248 463.689,378.374 459.430 L 379.079 458.469 379.079 460.615 L 379.079 462.762 383.821 462.762 L 388.563 462.762 388.563 438.494 L 388.563 414.226 383.682 414.226 L 378.801 414.226 378.801 422.573 M77.825 425.951 C 74.932 426.560,72.616 427.975,70.819 430.232 L 69.735 431.593 69.735 429.186 L 69.735 426.778 65.132 426.778 L 60.530 426.778 60.530 444.770 L 60.530 462.762 65.411 462.762 L 70.293 462.762 70.293 451.588 C 70.293 439.689,70.372 438.830,71.646 436.966 C 73.777 433.845,78.966 433.004,81.732 435.331 C 83.304 436.654,83.403 437.569,83.403 450.818 L 83.403 462.762 88.299 462.762 L 93.195 462.762 93.102 448.745 C 92.998 433.153,93.020 433.352,91.066 430.515 C 88.633 426.982,82.677 424.929,77.825 425.951 M168.619 425.974 C 159.719 427.267,154.915 433.839,154.981 444.630 C 155.056 456.939,160.304 462.962,171.437 463.518 C 179.772 463.934,186.734 459.482,188.433 452.650 L 188.624 451.883 183.573 451.883 C 179.938 451.883,178.522 451.973,178.522 452.205 C 178.522 453.612,175.675 455.491,173.205 455.715 C 168.639 456.129,165.372 453.452,164.700 448.745 L 164.511 447.420 176.816 447.420 L 189.121 447.420 189.114 446.234 C 189.026 431.653,181.402 424.116,168.619 425.974 M211.271 426.055 C 208.850 426.643,206.700 428.377,205.014 431.102 L 204.324 432.218 204.244 429.498 L 204.164 426.778 199.571 426.778 L 194.979 426.778 194.979 444.770 L 194.979 462.762 199.721 462.762 L 204.463 462.762 204.472 453.626 C 204.483 441.619,204.717 439.932,206.657 437.841 C 208.148 436.232,211.921 435.148,214.701 435.529 L 215.900 435.694 215.900 430.678 L 215.900 425.662 214.296 425.686 C 213.414 425.699,212.052 425.865,211.271 426.055 M231.115 425.953 C 224.515 426.993,220.447 431.084,220.136 436.992 C 219.773 443.915,222.604 446.103,235.981 449.235 C 241.707 450.576,243.319 452.089,241.424 454.341 C 238.472 457.849,229.498 456.289,228.837 452.155 L 228.660 451.046 223.654 451.046 L 218.649 451.046 218.844 452.650 C 219.702 459.693,225.409 463.373,235.565 463.433 C 246.152 463.495,251.673 459.405,251.725 451.464 C 251.765 445.329,249.252 443.184,238.981 440.589 C 231.027 438.579,229.568 437.909,229.568 436.263 C 229.568 431.771,239.843 432.119,241.056 436.653 L 241.399 437.936 246.121 437.936 L 250.843 437.936 250.696 436.192 C 250.063 428.690,241.653 424.293,231.115 425.953 M328.954 425.939 C 322.045 426.917,318.443 430.074,317.276 436.175 C 317.056 437.324,316.876 438.316,316.876 438.379 C 316.876 438.442,318.994 438.494,321.582 438.494 L 326.289 438.494 326.474 437.335 C 327.300 432.170,337.775 432.191,337.846 437.358 C 337.877 439.566,337.411 439.788,330.481 440.875 C 319.053 442.667,315.876 445.312,315.914 452.999 C 315.967 463.319,327.943 467.439,336.694 460.147 L 338.215 458.880 338.639 460.751 L 339.063 462.622 344.287 462.698 L 349.512 462.774 349.512 461.810 C 349.512 461.137,349.365 460.800,349.023 460.691 C 347.736 460.283,347.708 460.012,347.540 446.583 C 347.360 432.209,347.379 432.342,345.144 429.857 C 342.299 426.692,335.411 425.025,328.954 425.939 M101.813 444.770 L 101.813 462.762 106.695 462.762 L 111.576 462.762 111.576 444.770 L 111.576 426.778 106.695 426.778 L 101.813 426.778 101.813 444.770 M116.876 426.981 C 116.877 427.100,119.740 435.167,123.240 444.909 L 129.603 462.622 134.644 462.698 C 139.250 462.767,139.701 462.731,139.880 462.280 C 140.308 461.193,152.382 427.721,152.509 427.266 C 152.635 426.814,152.266 426.778,147.495 426.778 L 142.344 426.778 138.627 439.469 C 136.584 446.448,134.839 452.087,134.750 451.998 C 134.661 451.910,133.018 446.231,131.099 439.378 L 127.609 426.918 122.243 426.842 C 119.291 426.800,116.876 426.863,116.876 426.981 M258.856 444.770 L 258.856 462.762 263.598 462.762 L 268.340 462.762 268.340 444.770 L 268.340 426.778 263.598 426.778 L 258.856 426.778 258.856 444.770 M174.112 434.080 C 176.373 434.757,178.512 437.305,178.931 439.819 L 179.129 441.004 171.991 441.004 C 166.269 441.004,164.854 440.931,164.854 440.636 C 164.854 436.134,169.645 432.741,174.112 434.080 M295.932 434.759 C 302.741 437.603,302.204 453.118,295.226 455.171 C 289.169 456.953,285.255 452.989,285.228 445.049 C 285.200 436.532,289.737 432.171,295.932 434.759 M374.477 434.841 C 379.542 437.087,380.876 448.806,376.571 453.242 C 373.308 456.605,367.907 456.260,365.437 452.531 C 362.889 448.684,362.874 440.663,365.408 437.104 C 367.377 434.339,371.196 433.386,374.477 434.841 M338.003 448.326 C 337.823 451.707,337.617 452.321,336.124 453.941 C 332.121 458.284,325.237 457.073,325.586 452.088 C 325.794 449.119,327.014 448.221,332.343 447.114 C 334.357 446.696,336.440 446.164,336.971 445.933 C 337.502 445.702,337.985 445.502,338.046 445.490 C 338.106 445.477,338.087 446.754,338.003 448.326 M93.308 489.689 L 93.102 497.928 91.742 496.510 C 87.145 491.715,78.082 492.015,73.047 497.130 C 65.298 505.000,66.915 523.857,75.784 529.055 C 80.906 532.056,88.427 531.393,92.214 527.605 L 93.445 526.375 93.445 528.180 L 93.445 529.986 98.187 529.986 L 102.929 529.986 102.929 505.718 L 102.929 481.450 98.221 481.450 L 93.513 481.450 93.308 489.689 M148.675 505.718 L 148.675 529.986 153.556 529.986 L 158.438 529.986 158.438 505.718 L 158.438 481.450 153.556 481.450 L 148.675 481.450 148.675 505.718 M182.752 481.700 C 182.803 481.836,186.485 492.758,190.934 505.970 L 199.024 529.992 204.009 529.919 L 208.994 529.847 217.020 506.240 C 221.434 493.256,225.130 482.367,225.233 482.042 C 225.420 481.453,225.396 481.450,220.010 481.450 L 214.598 481.450 209.490 499.093 C 206.680 508.797,204.304 516.887,204.210 517.071 C 204.116 517.255,201.975 510.100,199.454 501.171 C 196.932 492.243,194.637 484.153,194.353 483.194 L 193.837 481.450 188.248 481.450 C 185.086 481.450,182.700 481.559,182.752 481.700 M264.714 505.718 L 264.714 529.986 269.456 529.986 L 274.198 529.986 274.198 505.718 L 274.198 481.450 269.456 481.450 L 264.714 481.450 264.714 505.718 M283.403 505.718 L 283.403 529.986 288.145 529.986 L 292.887 529.986 292.887 505.718 L 292.887 481.450 288.145 481.450 L 283.403 481.450 283.403 505.718 M120.279 493.730 C 110.752 496.226,106.033 507.243,109.336 519.279 C 113.489 534.417,136.619 535.303,141.833 520.524 L 142.235 519.386 137.254 519.386 L 132.273 519.386 131.707 520.346 C 129.441 524.185,122.179 524.002,119.667 520.042 C 118.977 518.953,118.677 518.034,118.110 515.272 L 117.981 514.644 130.302 514.644 L 142.623 514.644 142.456 511.088 C 141.828 497.658,132.664 490.486,120.279 493.730 M235.844 493.628 C 229.972 494.881,226.713 498.481,225.844 504.672 L 225.698 505.718 230.391 505.718 L 235.084 505.718 235.256 504.812 C 236.141 500.127,245.374 499.277,246.584 503.769 C 247.327 506.529,246.346 507.129,239.273 508.238 C 231.342 509.481,229.526 510.160,227.194 512.753 C 223.739 516.596,223.692 523.740,227.097 527.618 C 231.069 532.141,240.527 532.021,245.627 527.382 L 247.001 526.132 247.426 527.989 L 247.850 529.847 253.074 529.922 L 258.298 529.998 258.298 529.165 C 258.298 528.621,258.107 528.230,257.747 528.037 C 256.519 527.380,256.492 527.104,256.346 513.801 L 256.206 501.102 255.294 499.250 C 252.824 494.235,244.404 491.801,235.844 493.628 M310.795 493.730 C 302.783 495.829,298.785 502.364,299.109 512.831 C 299.483 524.890,305.067 530.783,316.193 530.863 C 324.360 530.922,329.941 527.350,332.349 520.524 L 332.751 519.386 327.770 519.386 L 322.789 519.386 322.223 520.346 C 320.540 523.197,315.665 524.010,312.222 522.014 C 310.408 520.962,309.155 518.712,308.700 515.690 L 308.543 514.644 320.839 514.644 L 333.135 514.644 332.976 511.088 C 332.378 497.638,323.224 490.474,310.795 493.730 M128.562 501.804 C 130.556 502.832,132.475 505.597,132.490 507.462 L 132.497 508.229 125.378 508.229 L 118.260 508.229 118.447 507.462 C 119.772 502.036,124.204 499.557,128.562 501.804 M319.114 501.816 C 321.150 502.855,323.013 505.634,323.013 507.633 C 323.013 508.226,322.975 508.229,315.929 508.229 L 308.846 508.229 309.101 507.091 C 310.213 502.144,314.908 499.670,319.114 501.816 M89.161 502.176 C 95.235 505.344,95.360 518.689,89.347 521.962 C 85.176 524.232,80.768 522.464,78.893 517.769 C 77.358 513.924,78.139 506.655,80.379 503.939 C 82.242 501.680,86.552 500.815,89.161 502.176 M246.805 515.690 C 246.662 519.055,246.163 520.425,244.605 521.736 C 240.359 525.309,234.310 524.229,234.310 519.897 C 234.310 516.716,235.772 515.566,241.219 514.463 C 243.172 514.068,245.209 513.521,245.746 513.249 C 246.283 512.976,246.770 512.739,246.828 512.722 C 246.886 512.705,246.876 514.041,246.805 515.690 M0.558 564.156 L 0.558 570.990 199.726 570.990 L 398.894 570.990 398.819 564.226 L 398.745 557.462 199.651 557.392 L 0.558 557.322 0.558 564.156 " stroke="none" fill="#ec1c04" fill-rule="evenodd"></path><path id="path2" d="M8.160 145.188 C 8.163 145.802,8.220 146.020,8.287 145.673 C 8.353 145.326,8.351 144.824,8.281 144.557 C 8.211 144.291,8.157 144.575,8.160 145.188 M130.477 260.448 C 130.824 260.515,131.327 260.513,131.593 260.443 C 131.860 260.373,131.576 260.318,130.962 260.321 C 130.349 260.324,130.130 260.382,130.477 260.448 " stroke="none" fill="#f36e5b" fill-rule="evenodd"></path><path id="path3" d="M8.226 76.290 C 8.226 113.724,8.259 128.996,8.298 110.229 C 8.338 91.461,8.338 60.833,8.298 42.167 C 8.259 23.501,8.226 38.856,8.226 76.290 M121.827 260.453 C 122.326 260.515,123.142 260.515,123.640 260.453 C 124.139 260.391,123.731 260.340,122.734 260.340 C 121.736 260.340,121.328 260.391,121.827 260.453 M127.121 260.452 C 127.616 260.514,128.495 260.515,129.073 260.455 C 129.652 260.394,129.247 260.344,128.173 260.343 C 127.099 260.341,126.626 260.391,127.121 260.452 " stroke="none" fill="#f49485" fill-rule="evenodd"></path><path id="path4" d="M243.373 71.827 C 243.373 106.806,243.405 121.074,243.445 103.534 C 243.485 85.994,243.485 57.375,243.445 39.936 C 243.405 22.497,243.373 36.848,243.373 71.827 M8.154 147.001 C 8.154 147.538,8.211 147.758,8.282 147.490 C 8.352 147.221,8.352 146.782,8.282 146.513 C 8.211 146.245,8.154 146.464,8.154 147.001 M39.052 222.402 C 39.052 222.450,39.460 222.858,39.958 223.309 L 40.865 224.128 40.045 223.222 C 39.282 222.377,39.052 222.187,39.052 222.402 M44.351 227.702 C 44.351 227.750,44.759 228.158,45.258 228.609 L 46.165 229.428 45.345 228.522 C 44.582 227.677,44.351 227.487,44.351 227.702 " stroke="none" fill="#ec432b" fill-rule="evenodd"></path></g></svg>